<svg xmlns="http://www.w3.org/2000/svg" xmlns:xlink="http://www.w3.org/1999/xlink" width="192" zoomAndPan="magnify" viewBox="0 0 144 143.999998" height="192" preserveAspectRatio="xMidYMid meet" version="1.0"><defs><g/><clipPath id="5a6b375d91"><path d="M 77 33 L 135 33 L 135 73 L 77 73 Z M 77 33 " clip-rule="nonzero"/></clipPath><clipPath id="84801277d0"><path d="M 67.007812 44.078125 L 123.878906 22.722656 L 134.6875 51.507812 L 77.816406 72.863281 Z M 67.007812 44.078125 " clip-rule="nonzero"/></clipPath><clipPath id="56af3e9aa9"><path d="M 67.007812 44.078125 L 123.878906 22.722656 L 134.6875 51.507812 L 77.816406 72.863281 Z M 67.007812 44.078125 " clip-rule="nonzero"/></clipPath></defs><g fill="#ffffff" fill-opacity="1"><g transform="translate(10.999866, 128.755173)"><g><path d="M 45.375 -91.21875 L 37.875 -43.078125 C 37.144531 -38.710938 36.78125 -35.160156 36.78125 -32.421875 C 36.78125 -27.828125 37.765625 -24.335938 39.734375 -21.953125 C 41.710938 -19.578125 45.125 -18.390625 49.96875 -18.390625 C 55.851562 -18.390625 60.347656 -20.304688 63.453125 -24.140625 C 66.554688 -27.972656 68.710938 -34 69.921875 -42.21875 L 77.546875 -91.21875 L 101.265625 -91.21875 L 93.03125 -38.71875 C 91.425781 -28.070312 88.644531 -19.960938 84.6875 -14.390625 C 80.738281 -8.828125 75.476562 -4.632812 68.90625 -1.8125 C 62.332031 1.007812 54.929688 2.421875 46.703125 2.421875 C 35.566406 2.421875 27.015625 0.0195312 21.046875 -4.78125 C 15.078125 -9.582031 12.09375 -16.578125 12.09375 -25.765625 C 12.09375 -27.460938 12.171875 -29.316406 12.328125 -31.328125 C 12.492188 -33.347656 15.601562 -53.3125 21.65625 -91.21875 Z M 82.875 -115.0625 L 59.28125 -96.78125 L 50.6875 -103.921875 L 71.015625 -124.734375 Z M 82.875 -115.0625 "/></g></g></g><g fill="#ffffff" fill-opacity="1"><g transform="translate(96.042116, 128.755173)"><g><path d="M 37.015625 -14.15625 C 37.015625 -9.71875 35.300781 -5.84375 31.875 -2.53125 C 28.445312 0.769531 24.640625 2.421875 20.453125 2.421875 C 17.054688 2.421875 14.1875 1.289062 11.84375 -0.96875 C 9.507812 -3.226562 8.34375 -6.128906 8.34375 -9.671875 C 8.34375 -14.035156 10.054688 -17.828125 13.484375 -21.046875 C 16.910156 -24.273438 20.722656 -25.890625 24.921875 -25.890625 C 28.390625 -25.890625 31.269531 -24.78125 33.5625 -22.5625 C 35.863281 -20.34375 37.015625 -17.539062 37.015625 -14.15625 Z M 37.015625 -14.15625 "/></g></g></g><g clip-path="url(#5a6b375d91)"><g clip-path="url(#84801277d0)"><g clip-path="url(#56af3e9aa9)"><path fill="#a56435" d="M 100.359375 42.867188 C 100.320312 42.765625 100.351562 42.652344 100.4375 42.582031 C 101.753906 41.472656 102.511719 39.75 102.304688 37.914062 C 102.039062 35.589844 100.3125 33.785156 98.148438 33.316406 C 97.59375 33.195312 97.011719 33.164062 96.417969 33.230469 C 94.324219 33.46875 92.65625 34.886719 92 36.742188 C 91.988281 36.773438 91.996094 36.804688 92.011719 36.828125 L 92.027344 36.84375 C 92.535156 37.480469 93.519531 37.40625 93.933594 36.707031 C 94.484375 35.769531 95.453125 35.09375 96.613281 34.960938 C 97.21875 34.894531 97.808594 34.980469 98.339844 35.195312 C 99.523438 35.664062 100.414062 36.757812 100.566406 38.109375 C 100.730469 39.542969 100.019531 40.875 98.859375 41.578125 C 98.734375 41.652344 98.601562 41.71875 98.46875 41.777344 C 98.144531 41.921875 97.792969 42.023438 97.421875 42.066406 C 96.894531 42.125 96.382812 42.066406 95.910156 41.914062 C 95.800781 41.875 95.6875 41.835938 95.582031 41.785156 C 94.804688 41.441406 93.894531 41.695312 93.378906 42.367188 L 93.367188 42.382812 C 94.121094 43.09375 95.074219 43.578125 96.121094 43.757812 C 96.605469 43.839844 97.105469 43.855469 97.617188 43.800781 C 97.632812 43.800781 97.648438 43.796875 97.664062 43.792969 C 97.78125 43.777344 97.894531 43.84375 97.933594 43.953125 L 98.414062 45.234375 C 98.460938 45.355469 98.433594 45.496094 98.34375 45.589844 L 79.242188 66.402344 C 77.566406 68.230469 77.058594 70.84375 77.929688 73.164062 L 101.105469 48.628906 L 134.320312 50.835938 C 133.484375 48.601562 131.433594 47.050781 129.054688 46.847656 L 101.175781 44.480469 C 101.042969 44.46875 100.925781 44.382812 100.875 44.253906 L 100.355469 42.867188 Z M 100.359375 42.867188 " fill-opacity="1" fill-rule="nonzero"/></g></g></g></svg>