<svg xmlns="http://www.w3.org/2000/svg" xmlns:xlink="http://www.w3.org/1999/xlink" width="145" zoomAndPan="magnify" viewBox="0 0 108.75 60" height="80" preserveAspectRatio="xMidYMid meet" version="1.0"><defs><g/><clipPath id="d41fd09c46"><path d="M 84 7 L 105 7 L 105 15 L 84 15 Z M 84 7 " clip-rule="nonzero"/></clipPath><clipPath id="9a7b52d43c"><path d="M 79.785156 11.960938 L 103.359375 2.394531 L 104.203125 4.472656 L 80.628906 14.042969 Z M 79.785156 11.960938 " clip-rule="nonzero"/></clipPath><clipPath id="302a414508"><path d="M 79.785156 11.960938 L 103.359375 2.394531 L 108.425781 14.875 L 84.851562 24.441406 Z M 79.785156 11.960938 " clip-rule="nonzero"/></clipPath><clipPath id="a24c434cf4"><path d="M 0 8.523438 L 99.632812 8.523438 L 99.632812 51.699219 L 0 51.699219 Z M 0 8.523438 " clip-rule="nonzero"/></clipPath><clipPath id="1983a03f8b"><path d="M 0.00390625 8.523438 L 99.519531 8.523438 L 99.519531 51.691406 L 0.00390625 51.691406 Z M 0.00390625 8.523438 " clip-rule="nonzero"/></clipPath><clipPath id="441cf0120e"><path d="M 84 7 L 108.5 7 L 108.5 25 L 84 25 Z M 84 7 " clip-rule="nonzero"/></clipPath><clipPath id="03faf721bc"><path d="M 80.367188 13.789062 L 103.941406 4.222656 L 108.160156 14.621094 L 84.589844 24.1875 Z M 80.367188 13.789062 " clip-rule="nonzero"/></clipPath><clipPath id="ab6fb20f8b"><path d="M 79.632812 11.976562 L 103.207031 2.410156 L 108.269531 14.890625 L 84.695312 24.457031 Z M 79.632812 11.976562 " clip-rule="nonzero"/></clipPath></defs><g clip-path="url(#d41fd09c46)"><g clip-path="url(#9a7b52d43c)"><g clip-path="url(#302a414508)"><path fill="#a56435" d="M 93.910156 11.070312 C 93.894531 11.027344 93.90625 10.980469 93.941406 10.949219 C 94.488281 10.464844 94.789062 9.726562 94.679688 8.949219 C 94.542969 7.964844 93.789062 7.222656 92.867188 7.046875 C 92.632812 7 92.382812 6.996094 92.132812 7.027344 C 91.25 7.152344 90.558594 7.773438 90.300781 8.570312 C 90.296875 8.582031 90.296875 8.59375 90.304688 8.605469 L 90.3125 8.609375 C 90.535156 8.875 90.953125 8.832031 91.121094 8.53125 C 91.34375 8.128906 91.746094 7.832031 92.234375 7.761719 C 92.492188 7.726562 92.742188 7.757812 92.96875 7.839844 C 93.476562 8.027344 93.867188 8.480469 93.949219 9.050781 C 94.03125 9.660156 93.746094 10.230469 93.261719 10.542969 C 93.210938 10.574219 93.15625 10.605469 93.097656 10.632812 C 92.964844 10.695312 92.816406 10.742188 92.65625 10.765625 C 92.433594 10.796875 92.21875 10.777344 92.015625 10.714844 C 91.96875 10.703125 91.921875 10.6875 91.875 10.667969 C 91.542969 10.53125 91.15625 10.648438 90.945312 10.9375 L 90.941406 10.945312 C 91.269531 11.238281 91.679688 11.433594 92.125 11.496094 C 92.332031 11.527344 92.542969 11.527344 92.761719 11.496094 C 92.765625 11.496094 92.773438 11.496094 92.78125 11.496094 C 92.828125 11.488281 92.878906 11.511719 92.894531 11.558594 L 93.113281 12.097656 C 93.136719 12.148438 93.125 12.207031 93.089844 12.25 L 85.222656 21.285156 C 84.53125 22.078125 84.34375 23.195312 84.742188 24.167969 L 94.292969 13.503906 L 108.402344 14.070312 C 108.019531 13.132812 107.132812 12.496094 106.121094 12.4375 L 94.277344 11.746094 C 94.21875 11.742188 94.167969 11.707031 94.148438 11.65625 Z M 93.910156 11.070312 " fill-opacity="1" fill-rule="nonzero"/></g></g></g><g clip-path="url(#a24c434cf4)"><path fill="#ffffff" d="M 0 8.523438 L 99.671875 8.523438 L 99.671875 51.699219 L 0 51.699219 Z M 0 8.523438 " fill-opacity="1" fill-rule="nonzero"/></g><g clip-path="url(#1983a03f8b)"><path stroke-linecap="butt" transform="matrix(0.74828, 0, 0, 0.74828, 0.00584489, 8.524159)" fill="none" stroke-linejoin="miter" d="M -0.0025908 -0.000964207 L 133.125663 -0.000964207 L 133.125663 57.688642 L -0.0025908 57.688642 Z M -0.0025908 -0.000964207 " stroke="#363d46" stroke-width="8" stroke-opacity="1" stroke-miterlimit="4"/></g><g fill="#363d46" fill-opacity="1"><g transform="translate(3.209134, 40.860135)"><g><path d="M 10.5 -21.09375 L 8.765625 -9.96875 C 8.585938 -8.957031 8.5 -8.132812 8.5 -7.5 C 8.5 -6.4375 8.726562 -5.628906 9.1875 -5.078125 C 9.644531 -4.523438 10.4375 -4.25 11.5625 -4.25 C 12.914062 -4.25 13.953125 -4.691406 14.671875 -5.578125 C 15.390625 -6.460938 15.890625 -7.859375 16.171875 -9.765625 L 17.9375 -21.09375 L 23.421875 -21.09375 L 21.515625 -8.953125 C 21.140625 -6.492188 20.492188 -4.617188 19.578125 -3.328125 C 18.671875 -2.046875 17.457031 -1.078125 15.9375 -0.421875 C 14.414062 0.234375 12.703125 0.5625 10.796875 0.5625 C 8.222656 0.5625 6.242188 0.0078125 4.859375 -1.09375 C 3.484375 -2.207031 2.796875 -3.828125 2.796875 -5.953125 C 2.796875 -6.347656 2.8125 -6.78125 2.84375 -7.25 C 2.882812 -7.71875 3.609375 -12.332031 5.015625 -21.09375 Z M 19.171875 -26.609375 L 13.71875 -22.390625 L 11.734375 -24.03125 L 16.4375 -28.859375 Z M 19.171875 -26.609375 "/></g></g></g><g fill="#363d46" fill-opacity="1"><g transform="translate(22.874424, 40.860135)"><g><path d="M 10.609375 -21.09375 L 18.609375 -8.203125 L 18.671875 -8.203125 L 20.703125 -21.09375 L 26.1875 -21.09375 L 22.859375 0 L 17.375 0 L 9.375 -12.921875 L 9.3125 -12.921875 L 7.28125 0 L 1.796875 0 L 5.125 -21.09375 Z M 10.609375 -21.09375 "/></g></g></g><g fill="#363d46" fill-opacity="1"><g transform="translate(45.421044, 40.860135)"><g><path d="M 10.609375 -21.09375 L 7.28125 0 L 1.796875 0 L 5.125 -21.09375 Z M 10.609375 -21.09375 "/></g></g></g><path stroke-linecap="butt" transform="matrix(0.782832, 0, 0, 0.782832, 52.498666, 13.461001)" fill="none" stroke-linejoin="miter" d="M 24.372342 17.095293 C 23.823454 16.142224 23.045031 15.408709 22.032083 14.89475 C 21.019134 14.385781 19.906388 14.126307 18.688854 14.126307 C 16.428433 14.126307 14.447445 14.999538 12.755871 16.736021 C 11.064298 18.477494 10.216016 20.538319 10.216016 22.923488 C 10.216016 24.70987 10.789853 26.156939 11.937529 27.269685 C 13.080214 28.372452 14.597142 28.92633 16.473342 28.92633 C 17.621017 28.92633 18.768693 28.671845 19.921358 28.157886 C 21.079013 27.648917 22.096951 26.950332 22.985152 26.067121 L 21.622911 34.470101 C 21.123922 34.629778 20.245701 34.879272 18.993238 35.208605 C 17.745764 35.547918 16.498291 35.717574 15.260798 35.717574 C 13.090194 35.717574 11.064298 35.243534 9.178118 34.300445 C 7.301918 33.357355 5.780001 32.040023 4.622346 30.338469 C 3.47467 28.636916 2.885863 26.650938 2.860913 24.380537 C 2.860913 21.331712 3.614387 18.517413 5.111355 15.932648 C 6.613313 13.347883 8.689108 11.267098 11.343732 9.695282 C 14.003345 8.123465 16.737806 7.340052 19.552106 7.340052 C 21.553053 7.340052 23.613879 7.789143 25.729593 8.692313 Z M 41.916807 8.053607 L 47.81486 34.99903 L 40.34499 34.99903 L 39.352002 30.31352 L 29.701548 30.31352 L 27.091834 34.99903 L 19.656894 34.99903 L 34.27229 8.053607 Z M 32.480919 24.954375 L 38.314104 24.954375 L 36.812146 16.381738 L 36.742288 16.381738 Z M 32.480919 24.954375 " stroke="#ffffff" stroke-width="3.618928" stroke-opacity="1" stroke-miterlimit="4"/><g fill="#363d46" fill-opacity="1"><g transform="translate(52.498666, 40.860135)"><g><path d="M 19.078125 -14.015625 C 18.648438 -14.765625 18.039062 -15.335938 17.25 -15.734375 C 16.457031 -16.140625 15.585938 -16.34375 14.640625 -16.34375 C 12.867188 -16.34375 11.316406 -15.660156 9.984375 -14.296875 C 8.660156 -12.929688 8 -11.316406 8 -9.453125 C 8 -8.054688 8.445312 -6.921875 9.34375 -6.046875 C 10.238281 -5.179688 11.425781 -4.75 12.90625 -4.75 C 13.800781 -4.75 14.695312 -4.945312 15.59375 -5.34375 C 16.5 -5.75 17.300781 -6.300781 18 -7 L 16.9375 -0.421875 C 16.539062 -0.285156 15.851562 -0.0859375 14.875 0.171875 C 13.894531 0.429688 12.921875 0.5625 11.953125 0.5625 C 10.253906 0.5625 8.664062 0.191406 7.1875 -0.546875 C 5.71875 -1.285156 4.53125 -2.320312 3.625 -3.65625 C 2.71875 -4.988281 2.253906 -6.539062 2.234375 -8.3125 C 2.234375 -10.695312 2.820312 -12.898438 4 -14.921875 C 5.175781 -16.953125 6.800781 -18.582031 8.875 -19.8125 C 10.957031 -21.039062 13.101562 -21.65625 15.3125 -21.65625 C 16.875 -21.65625 18.488281 -21.300781 20.15625 -20.59375 Z M 19.078125 -14.015625 "/></g></g></g><g fill="#363d46" fill-opacity="1"><g transform="translate(67.995624, 40.860135)"><g><path d="M 17.328125 -21.09375 L 21.9375 0 L 16.09375 0 L 15.3125 -3.671875 L 7.75 -3.671875 L 5.703125 0 L -0.109375 0 L 11.328125 -21.09375 Z M 9.9375 -7.859375 L 14.5 -7.859375 L 13.328125 -14.578125 L 13.265625 -14.578125 Z M 9.9375 -7.859375 "/></g></g></g><g clip-path="url(#441cf0120e)"><g clip-path="url(#03faf721bc)"><g clip-path="url(#ab6fb20f8b)"><path fill="#a56435" d="M 93.789062 11.085938 C 93.773438 11.042969 93.785156 10.996094 93.820312 10.964844 C 94.367188 10.480469 94.671875 9.738281 94.5625 8.960938 C 94.421875 7.976562 93.667969 7.226562 92.742188 7.054688 C 92.507812 7.007812 92.257812 7 92.007812 7.035156 C 91.121094 7.160156 90.425781 7.78125 90.167969 8.578125 C 90.164062 8.589844 90.167969 8.605469 90.175781 8.613281 L 90.179688 8.621094 C 90.40625 8.886719 90.824219 8.84375 90.992188 8.539062 C 91.214844 8.136719 91.617188 7.839844 92.109375 7.769531 C 92.367188 7.734375 92.617188 7.765625 92.847656 7.847656 C 93.355469 8.035156 93.746094 8.488281 93.824219 9.0625 C 93.910156 9.671875 93.625 10.246094 93.136719 10.554688 C 93.085938 10.589844 93.03125 10.617188 92.976562 10.644531 C 92.839844 10.710938 92.691406 10.757812 92.53125 10.777344 C 92.308594 10.808594 92.089844 10.792969 91.890625 10.730469 C 91.839844 10.714844 91.792969 10.699219 91.746094 10.679688 C 91.414062 10.542969 91.03125 10.660156 90.820312 10.953125 L 90.8125 10.960938 C 91.140625 11.253906 91.554688 11.449219 92 11.511719 C 92.207031 11.542969 92.417969 11.542969 92.636719 11.515625 C 92.640625 11.511719 92.648438 11.511719 92.65625 11.511719 C 92.703125 11.503906 92.753906 11.53125 92.773438 11.578125 L 92.992188 12.113281 C 93.011719 12.164062 93 12.226562 92.964844 12.265625 L 85.082031 21.324219 C 84.386719 22.121094 84.203125 23.238281 84.597656 24.214844 L 94.171875 13.527344 L 108.3125 14.09375 C 107.929688 13.152344 107.042969 12.515625 106.027344 12.457031 L 94.15625 11.761719 C 94.097656 11.761719 94.046875 11.722656 94.027344 11.671875 Z M 93.789062 11.085938 " fill-opacity="1" fill-rule="nonzero"/></g></g></g><g fill="#545454" fill-opacity="1"><g transform="translate(47.43649, 45.722405)"><g><path d="M 1.6875 0.0625 C 1.4375 0.0625 1.21875 0.0195312 1.03125 -0.0625 C 0.84375 -0.144531 0.6875 -0.253906 0.5625 -0.390625 C 0.4375 -0.535156 0.34375 -0.695312 0.28125 -0.875 C 0.226562 -1.050781 0.203125 -1.234375 0.203125 -1.421875 C 0.203125 -1.609375 0.234375 -1.789062 0.296875 -1.96875 C 0.359375 -2.144531 0.453125 -2.300781 0.578125 -2.4375 C 0.703125 -2.582031 0.851562 -2.695312 1.03125 -2.78125 C 1.21875 -2.863281 1.4375 -2.90625 1.6875 -2.90625 C 1.875 -2.90625 2.054688 -2.867188 2.234375 -2.796875 C 2.421875 -2.722656 2.585938 -2.613281 2.734375 -2.46875 L 2.484375 -2.25 C 2.367188 -2.351562 2.242188 -2.429688 2.109375 -2.484375 C 1.972656 -2.535156 1.832031 -2.5625 1.6875 -2.5625 C 1.5 -2.5625 1.332031 -2.53125 1.1875 -2.46875 C 1.039062 -2.40625 0.921875 -2.316406 0.828125 -2.203125 C 0.734375 -2.097656 0.664062 -1.972656 0.625 -1.828125 C 0.582031 -1.691406 0.5625 -1.550781 0.5625 -1.40625 C 0.5625 -1.257812 0.582031 -1.117188 0.625 -0.984375 C 0.675781 -0.847656 0.742188 -0.726562 0.828125 -0.625 C 0.921875 -0.519531 1.035156 -0.4375 1.171875 -0.375 C 1.316406 -0.3125 1.488281 -0.28125 1.6875 -0.28125 C 1.832031 -0.28125 1.972656 -0.304688 2.109375 -0.359375 C 2.253906 -0.421875 2.382812 -0.503906 2.5 -0.609375 L 2.75 -0.359375 C 2.59375 -0.222656 2.425781 -0.117188 2.25 -0.046875 C 2.070312 0.0234375 1.882812 0.0625 1.6875 0.0625 Z M 1.6875 0.0625 "/></g></g></g><g fill="#545454" fill-opacity="1"><g transform="translate(52.928825, 45.722405)"><g><path d="M 1.640625 0.0625 C 1.398438 0.0625 1.1875 0.0195312 1 -0.0625 C 0.820312 -0.144531 0.671875 -0.253906 0.546875 -0.390625 C 0.429688 -0.535156 0.34375 -0.695312 0.28125 -0.875 C 0.21875 -1.050781 0.1875 -1.226562 0.1875 -1.40625 C 0.1875 -1.613281 0.21875 -1.804688 0.28125 -1.984375 C 0.351562 -2.171875 0.453125 -2.332031 0.578125 -2.46875 C 0.710938 -2.601562 0.867188 -2.707031 1.046875 -2.78125 C 1.222656 -2.863281 1.425781 -2.90625 1.65625 -2.90625 C 1.894531 -2.90625 2.101562 -2.863281 2.28125 -2.78125 C 2.457031 -2.695312 2.601562 -2.582031 2.71875 -2.4375 C 2.84375 -2.289062 2.9375 -2.128906 3 -1.953125 C 3.0625 -1.773438 3.09375 -1.59375 3.09375 -1.40625 C 3.09375 -1.226562 3.0625 -1.050781 3 -0.875 C 2.9375 -0.695312 2.84375 -0.535156 2.71875 -0.390625 C 2.601562 -0.253906 2.457031 -0.144531 2.28125 -0.0625 C 2.101562 0.0195312 1.890625 0.0625 1.640625 0.0625 Z M 1.65625 -0.265625 C 1.832031 -0.265625 1.988281 -0.296875 2.125 -0.359375 C 2.269531 -0.429688 2.382812 -0.519531 2.46875 -0.625 C 2.5625 -0.738281 2.628906 -0.863281 2.671875 -1 C 2.710938 -1.132812 2.734375 -1.269531 2.734375 -1.40625 C 2.734375 -1.550781 2.710938 -1.691406 2.671875 -1.828125 C 2.628906 -1.972656 2.5625 -2.097656 2.46875 -2.203125 C 2.382812 -2.316406 2.269531 -2.40625 2.125 -2.46875 C 1.988281 -2.539062 1.832031 -2.578125 1.65625 -2.578125 C 1.40625 -2.578125 1.195312 -2.519531 1.03125 -2.40625 C 0.875 -2.300781 0.753906 -2.160156 0.671875 -1.984375 C 0.585938 -1.804688 0.546875 -1.613281 0.546875 -1.40625 C 0.546875 -1.269531 0.566406 -1.132812 0.609375 -1 C 0.660156 -0.863281 0.726562 -0.738281 0.8125 -0.625 C 0.90625 -0.519531 1.019531 -0.429688 1.15625 -0.359375 C 1.300781 -0.296875 1.46875 -0.265625 1.65625 -0.265625 Z M 1.65625 -0.265625 "/></g></g></g><g fill="#545454" fill-opacity="1"><g transform="translate(58.823633, 45.722405)"><g><path d="M 0.375 0 L 0.375 -2.84375 L 0.625 -2.84375 L 2.375 -0.65625 L 2.375 -2.84375 L 2.71875 -2.84375 L 2.71875 0 L 2.46875 0 L 0.734375 -2.171875 L 0.734375 0 Z M 0.375 0 "/></g></g></g><g fill="#545454" fill-opacity="1"><g transform="translate(64.527365, 45.722405)"><g><path d="M 0.375 0 L 0.375 -2.84375 L 2.359375 -2.84375 L 2.359375 -2.515625 L 0.734375 -2.515625 L 0.734375 -1.515625 L 2.28125 -1.515625 L 2.28125 -1.1875 L 0.734375 -1.1875 L 0.734375 0 Z M 0.375 0 "/></g></g></g><g fill="#545454" fill-opacity="1"><g transform="translate(69.678206, 45.722405)"><g><path d="M 0.375 0 L 0.375 -2.84375 L 2.375 -2.84375 L 2.375 -2.515625 L 0.734375 -2.515625 L 0.734375 -1.625 L 2.3125 -1.625 L 2.3125 -1.296875 L 0.734375 -1.296875 L 0.734375 -0.34375 L 2.4375 -0.34375 L 2.4375 0 Z M 0.375 0 "/></g></g></g><g fill="#545454" fill-opacity="1"><g transform="translate(74.934746, 45.722405)"><g><path d="M 1.6875 0.0625 C 1.4375 0.0625 1.21875 0.0195312 1.03125 -0.0625 C 0.84375 -0.144531 0.6875 -0.253906 0.5625 -0.390625 C 0.4375 -0.535156 0.34375 -0.695312 0.28125 -0.875 C 0.226562 -1.050781 0.203125 -1.234375 0.203125 -1.421875 C 0.203125 -1.609375 0.234375 -1.789062 0.296875 -1.96875 C 0.359375 -2.144531 0.453125 -2.300781 0.578125 -2.4375 C 0.703125 -2.582031 0.851562 -2.695312 1.03125 -2.78125 C 1.21875 -2.863281 1.4375 -2.90625 1.6875 -2.90625 C 1.875 -2.90625 2.054688 -2.867188 2.234375 -2.796875 C 2.421875 -2.722656 2.585938 -2.613281 2.734375 -2.46875 L 2.484375 -2.25 C 2.367188 -2.351562 2.242188 -2.429688 2.109375 -2.484375 C 1.972656 -2.535156 1.832031 -2.5625 1.6875 -2.5625 C 1.5 -2.5625 1.332031 -2.53125 1.1875 -2.46875 C 1.039062 -2.40625 0.921875 -2.316406 0.828125 -2.203125 C 0.734375 -2.097656 0.664062 -1.972656 0.625 -1.828125 C 0.582031 -1.691406 0.5625 -1.550781 0.5625 -1.40625 C 0.5625 -1.257812 0.582031 -1.117188 0.625 -0.984375 C 0.675781 -0.847656 0.742188 -0.726562 0.828125 -0.625 C 0.921875 -0.519531 1.035156 -0.4375 1.171875 -0.375 C 1.316406 -0.3125 1.488281 -0.28125 1.6875 -0.28125 C 1.832031 -0.28125 1.972656 -0.304688 2.109375 -0.359375 C 2.253906 -0.421875 2.382812 -0.503906 2.5 -0.609375 L 2.75 -0.359375 C 2.59375 -0.222656 2.425781 -0.117188 2.25 -0.046875 C 2.070312 0.0234375 1.882812 0.0625 1.6875 0.0625 Z M 1.6875 0.0625 "/></g></g></g><g fill="#545454" fill-opacity="1"><g transform="translate(80.427082, 45.722405)"><g><path d="M 1.46875 1.171875 C 1.375 1.171875 1.28125 1.148438 1.1875 1.109375 C 1.101562 1.066406 1.035156 1.007812 0.984375 0.9375 L 1.15625 0.765625 C 1.195312 0.816406 1.242188 0.851562 1.296875 0.875 C 1.347656 0.894531 1.40625 0.90625 1.46875 0.90625 C 1.539062 0.90625 1.601562 0.890625 1.65625 0.859375 C 1.707031 0.828125 1.738281 0.773438 1.75 0.703125 C 1.757812 0.703125 1.765625 0.695312 1.765625 0.6875 C 1.765625 0.675781 1.765625 0.664062 1.765625 0.65625 C 1.765625 0.613281 1.742188 0.570312 1.703125 0.53125 C 1.660156 0.5 1.597656 0.484375 1.515625 0.484375 C 1.472656 0.484375 1.425781 0.488281 1.375 0.5 L 1.3125 0.4375 L 1.4375 0.046875 C 1.226562 0.015625 1.046875 -0.0390625 0.890625 -0.125 C 0.734375 -0.21875 0.601562 -0.332031 0.5 -0.46875 C 0.394531 -0.601562 0.316406 -0.75 0.265625 -0.90625 C 0.222656 -1.070312 0.203125 -1.242188 0.203125 -1.421875 C 0.203125 -1.609375 0.234375 -1.789062 0.296875 -1.96875 C 0.359375 -2.144531 0.453125 -2.300781 0.578125 -2.4375 C 0.703125 -2.582031 0.851562 -2.691406 1.03125 -2.765625 C 1.21875 -2.847656 1.4375 -2.890625 1.6875 -2.890625 C 1.875 -2.890625 2.054688 -2.851562 2.234375 -2.78125 C 2.421875 -2.71875 2.585938 -2.613281 2.734375 -2.46875 L 2.484375 -2.25 C 2.367188 -2.351562 2.242188 -2.429688 2.109375 -2.484375 C 1.972656 -2.535156 1.832031 -2.5625 1.6875 -2.5625 C 1.5 -2.5625 1.332031 -2.523438 1.1875 -2.453125 C 1.039062 -2.390625 0.921875 -2.304688 0.828125 -2.203125 C 0.734375 -2.097656 0.664062 -1.972656 0.625 -1.828125 C 0.582031 -1.691406 0.5625 -1.550781 0.5625 -1.40625 C 0.5625 -1.257812 0.582031 -1.117188 0.625 -0.984375 C 0.675781 -0.847656 0.742188 -0.726562 0.828125 -0.625 C 0.921875 -0.519531 1.035156 -0.4375 1.171875 -0.375 C 1.316406 -0.3125 1.488281 -0.28125 1.6875 -0.28125 C 1.832031 -0.28125 1.972656 -0.304688 2.109375 -0.359375 C 2.253906 -0.421875 2.382812 -0.503906 2.5 -0.609375 L 2.75 -0.359375 C 2.59375 -0.222656 2.425781 -0.117188 2.25 -0.046875 C 2.070312 0.015625 1.882812 0.0507812 1.6875 0.0625 L 1.625 0.265625 C 1.769531 0.265625 1.878906 0.300781 1.953125 0.375 C 2.035156 0.445312 2.078125 0.535156 2.078125 0.640625 C 2.078125 0.691406 2.070312 0.738281 2.0625 0.78125 C 2.019531 0.90625 1.945312 1 1.84375 1.0625 C 1.75 1.132812 1.625 1.171875 1.46875 1.171875 Z M 1.46875 1.171875 "/></g></g></g><g fill="#545454" fill-opacity="1"><g transform="translate(85.919418, 45.722405)"><g><path d="M 1.78125 -3.140625 C 1.738281 -3.140625 1.691406 -3.148438 1.640625 -3.171875 C 1.628906 -3.171875 1.601562 -3.175781 1.5625 -3.1875 C 1.53125 -3.207031 1.5 -3.222656 1.46875 -3.234375 C 1.445312 -3.253906 1.425781 -3.265625 1.40625 -3.265625 C 1.382812 -3.273438 1.363281 -3.28125 1.34375 -3.28125 C 1.300781 -3.28125 1.265625 -3.269531 1.234375 -3.25 C 1.210938 -3.226562 1.191406 -3.195312 1.171875 -3.15625 L 0.953125 -3.25 L 0.953125 -3.265625 C 0.972656 -3.359375 1.015625 -3.429688 1.078125 -3.484375 C 1.140625 -3.546875 1.210938 -3.578125 1.296875 -3.578125 C 1.347656 -3.578125 1.394531 -3.566406 1.4375 -3.546875 C 1.457031 -3.546875 1.484375 -3.535156 1.515625 -3.515625 C 1.546875 -3.503906 1.578125 -3.488281 1.609375 -3.46875 C 1.640625 -3.445312 1.660156 -3.4375 1.671875 -3.4375 C 1.679688 -3.4375 1.691406 -3.429688 1.703125 -3.421875 C 1.722656 -3.421875 1.738281 -3.421875 1.75 -3.421875 C 1.78125 -3.421875 1.804688 -3.429688 1.828125 -3.453125 C 1.859375 -3.472656 1.878906 -3.503906 1.890625 -3.546875 L 2.109375 -3.453125 C 2.085938 -3.347656 2.046875 -3.269531 1.984375 -3.21875 C 1.921875 -3.164062 1.851562 -3.140625 1.78125 -3.140625 Z M 0.0625 0 L 1.34375 -2.84375 L 1.734375 -2.84375 L 3.015625 0 L 2.640625 0 L 2.359375 -0.625 L 0.734375 -0.625 L 0.453125 0 Z M 0.875 -0.953125 L 2.21875 -0.953125 L 1.546875 -2.484375 Z M 0.875 -0.953125 "/></g></g></g><g fill="#545454" fill-opacity="1"><g transform="translate(91.615022, 45.722405)"><g><path d="M 1.640625 0.0625 C 1.398438 0.0625 1.1875 0.0195312 1 -0.0625 C 0.820312 -0.144531 0.671875 -0.253906 0.546875 -0.390625 C 0.429688 -0.535156 0.34375 -0.695312 0.28125 -0.875 C 0.21875 -1.050781 0.1875 -1.226562 0.1875 -1.40625 C 0.1875 -1.613281 0.21875 -1.804688 0.28125 -1.984375 C 0.351562 -2.171875 0.453125 -2.332031 0.578125 -2.46875 C 0.710938 -2.601562 0.867188 -2.707031 1.046875 -2.78125 C 1.222656 -2.863281 1.425781 -2.90625 1.65625 -2.90625 C 1.894531 -2.90625 2.101562 -2.863281 2.28125 -2.78125 C 2.457031 -2.695312 2.601562 -2.582031 2.71875 -2.4375 C 2.84375 -2.289062 2.9375 -2.128906 3 -1.953125 C 3.0625 -1.773438 3.09375 -1.59375 3.09375 -1.40625 C 3.09375 -1.226562 3.0625 -1.050781 3 -0.875 C 2.9375 -0.695312 2.84375 -0.535156 2.71875 -0.390625 C 2.601562 -0.253906 2.457031 -0.144531 2.28125 -0.0625 C 2.101562 0.0195312 1.890625 0.0625 1.640625 0.0625 Z M 1.65625 -0.265625 C 1.832031 -0.265625 1.988281 -0.296875 2.125 -0.359375 C 2.269531 -0.429688 2.382812 -0.519531 2.46875 -0.625 C 2.5625 -0.738281 2.628906 -0.863281 2.671875 -1 C 2.710938 -1.132812 2.734375 -1.269531 2.734375 -1.40625 C 2.734375 -1.550781 2.710938 -1.691406 2.671875 -1.828125 C 2.628906 -1.972656 2.5625 -2.097656 2.46875 -2.203125 C 2.382812 -2.316406 2.269531 -2.40625 2.125 -2.46875 C 1.988281 -2.539062 1.832031 -2.578125 1.65625 -2.578125 C 1.40625 -2.578125 1.195312 -2.519531 1.03125 -2.40625 C 0.875 -2.300781 0.753906 -2.160156 0.671875 -1.984375 C 0.585938 -1.804688 0.546875 -1.613281 0.546875 -1.40625 C 0.546875 -1.269531 0.566406 -1.132812 0.609375 -1 C 0.660156 -0.863281 0.726562 -0.738281 0.8125 -0.625 C 0.90625 -0.519531 1.019531 -0.429688 1.15625 -0.359375 C 1.300781 -0.296875 1.46875 -0.265625 1.65625 -0.265625 Z M 1.65625 -0.265625 "/></g></g></g></svg>